<svg xmlns="http://www.w3.org/2000/svg" width="363.03485107421875" height="364.7005615234375" viewBox="-89.82371520996094 -76.66966247558594 363.03485107421875 364.7005615234375"><title>Neo4j Graph Visualization</title><desc>Created using Neo4j (http://www.neo4j.com/)</desc><g class="layer relationships"><g class="relationship" transform="translate(135.87770024726115 259.0308801109047) rotate(330.06910976841084)"><path class="outline" fill="#A5ABB6" stroke="none" d="M 21.40063509461097,12.933012701892217 L 21.90063509461097,12.06698729810778 A 57.57576148641585 57.57576148641585 0 0 0 24.24111214091837,13.346905279750949 L 23.781762528961604,14.235160836443484 A 58.57576148641585 58.57576148641585 0 0 1 21.40063509461097,12.933012701892217 Z M 74.27096850894333,15.823827541206349 L 73.86837105100685,14.90845041298919 A 57.57576148641585 57.57576148641585 0 0 0 76.28468496026574,13.778207104693472 L 74.95098992289384,11.09096734105317 L 82.7771935816551,11.114125311432439 L 78.06294501009494,17.361193456213876 L 76.72924997272304,14.673953692573573 A 58.57576148641585 58.57576148641585 0 0 1 74.27096850894333,15.823827541206349"/><text text-anchor="middle" pointer-events="none" font-size="8px" fill="#000000" x="48.86203853396005" y="23.251948318742308" font-family="sans-serif">PRODUCED</text></g><g class="relationship" transform="translate(135.87770024726115 259.0308801109047) rotate(330.06910976841084)"><path class="outline" fill="#A5ABB6" stroke="none" d="M 25 0.5 L 25.640116639328802 0.5 L 25.640116639328802 -0.5 L 25 -0.5 Z M 72.5307416393288 0.5 L 73.1708582786576 0.5 L 73.1708582786576 3.5 L 80.1708582786576 0 L 73.1708582786576 -3.5 L 73.1708582786576 -0.5 L 72.5307416393288 -0.5 Z"/><text text-anchor="middle" pointer-events="none" font-size="8px" fill="#000000" x="49.0854291393288" y="3" font-family="sans-serif">DIRECTED</text></g><g class="relationship" transform="translate(135.87770024726115 259.0308801109047) rotate(330.06910976841084)"><path class="outline" fill="#A5ABB6" stroke="none" d="M 21.40063509461097,-12.933012701892217 L 21.90063509461097,-12.06698729810778 A 57.57576148641585 57.57576148641585 0 0 1 31.51789846470793,-16.49539080311422 L 31.184935132948368,-17.438330578340384 A 58.57576148641585 58.57576148641585 0 0 0 21.40063509461097,-12.933012701892217 Z M 66.68106169549442,-18.555232960214333 L 66.40803842696407,-17.593225530491985 A 57.57576148641585 57.57576148641585 0 0 1 76.28468496026574,-13.778207104693472 L 74.95098992289384,-11.09096734105317 L 82.7771935816551,-11.114125311432439 L 78.06294501009494,-17.361193456213876 L 76.72924997272304,-14.673953692573573 A 58.57576148641585 58.57576148641585 0 0 0 66.68106169549442,-18.555232960214333"/><text text-anchor="middle" pointer-events="none" font-size="8px" fill="#000000" x="48.862038533960046" y="-17.251948318742308" font-family="sans-serif">WROTE</text></g><g class="relationship" transform="translate(244.21110203782854 16.030528740670846) rotate(201.7835283005645)"><path class="outline" fill="#A5ABB6" stroke="none" d="M 24.018736134675446,6.953439040707552 L 24.277555179777966,5.987513214418485 A 99.57207582886114 99.57207582886114 0 0 0 30.744869882354607,7.491231389746076 L 30.551001925684673,8.472259022066709 A 100.57207582886114 100.57207582886114 0 0 1 24.018736134675446,6.953439040707552 Z M 66.30726502466429,9.057463287518829 L 66.14560424431357,8.07061690023437 A 99.57207582886114 99.57207582886114 0 0 0 72.65866315651576,6.779341786574117 L 71.97744932612328,3.857707360900362 L 79.58934578815327,5.6767819199373 L 73.56694826370573,10.674854354139123 L 72.88573443331325,7.753219928465368 A 100.57207582886114 100.57207582886114 0 0 1 66.30726502466429,9.057463287518829"/><text text-anchor="middle" pointer-events="none" font-size="8px" fill="#000000" x="48.41109616728066" y="12.866949373767724" transform="rotate(180 48.41109616728066 9.866949373767724)" font-family="sans-serif">WROTE</text></g><g class="relationship" transform="translate(244.21110203782854 16.030528740670846) rotate(201.7835283005645)"><path class="outline" fill="#A5ABB6" stroke="none" d="M 24.018736134675446,-6.953439040707552 L 24.277555179777966,-5.987513214418485 A 99.57207582886114 99.57207582886114 0 0 1 25.351543404885664,-6.268879572075917 L 25.10351039809928,-7.237631154033082 A 100.57207582886114 100.57207582886114 0 0 0 24.018736134675446,-6.953439040707552 Z M 71.79224119377932,-8.00176146414249 L 71.57604264910475,-7.025412044477278 A 99.57207582886114 99.57207582886114 0 0 1 72.65866315651576,-6.779341786574117 L 71.97744932612328,-3.857707360900362 L 79.58934578815327,-5.6767819199373 L 73.56694826370573,-10.674854354139123 L 72.88573443331325,-7.753219928465368 A 100.57207582886114 100.57207582886114 0 0 0 71.79224119377932,-8.00176146414249"/><text text-anchor="middle" pointer-events="none" font-size="8px" fill="#000000" x="48.41109616728066" y="-6.866949373767724" transform="rotate(180 48.41109616728066 -9.866949373767724)" font-family="sans-serif">DIRECTED</text></g><g class="relationship" transform="translate(46.937462493075515 -47.66966515539214) rotate(374.0038859095733)"><path class="outline" fill="#A5ABB6" stroke="none" d="M 24.018736134675446,6.953439040707552 L 24.277555179777966,5.987513214418485 A 99.39023298420194 99.39023298420194 0 0 0 30.700024756804755,7.48195128573802 L 30.505824431109478,8.462913177709297 A 100.39023298420194 100.39023298420194 0 0 1 24.018736134675446,6.953439040707552 Z M 66.26170799067435,9.048591492755492 L 66.09973936948421,8.061795583891978 A 99.39023298420194 99.39023298420194 0 0 0 72.56770795696865,6.7785017873830835 L 71.8865725906609,3.8568490679852423 L 79.4984201966149,5.67612805256463 L 73.47588844537898,10.674038746580205 L 72.79475307907124,7.752386027182364 A 100.39023298420194 100.39023298420194 0 0 1 66.26170799067435,9.048591492755492"/><text text-anchor="middle" pointer-events="none" font-size="8px" fill="#000000" x="48.36566635158822" y="12.860755619597711" font-family="sans-serif">WROTE</text></g><g class="relationship" transform="translate(46.937462493075515 -47.66966515539214) rotate(374.0038859095733)"><path class="outline" fill="#A5ABB6" stroke="none" d="M 24.018736134675446,-6.953439040707552 L 24.277555179777966,-5.987513214418485 A 99.39023298420194 99.39023298420194 0 0 1 25.307226455283708,-6.257511345329689 L 25.0587672940912,-7.226153717528788 A 100.39023298420194 100.39023298420194 0 0 0 24.018736134675446,-6.953439040707552 Z M 71.74634816422231,-7.990892299699482 L 71.52974633808273,-7.014632268297504 A 99.39023298420194 99.39023298420194 0 0 1 72.56770795696865,-6.7785017873830835 L 71.8865725906609,-3.8568490679852423 L 79.4984201966149,-5.67612805256463 L 73.47588844537898,-10.674038746580205 L 72.79475307907124,-7.752386027182364 A 100.39023298420194 100.39023298420194 0 0 0 71.74634816422231,-7.990892299699482"/><text text-anchor="middle" pointer-events="none" font-size="8px" fill="#000000" x="48.36566635158821" y="-6.860755619597711" font-family="sans-serif">DIRECTED</text></g><g class="relationship" transform="translate(-60.823711175718856 95.44132169952825) rotate(432.0881641578514)"><path class="outline" fill="#A5ABB6" stroke="none" d="M 21.40063509461097,12.933012701892217 L 21.90063509461097,12.06698729810778 A 57.1684866985376 57.1684866985376 0 0 0 24.059156837409066,13.25197539359118 L 23.596914033155393,14.138728792183883 A 58.1684866985376 58.1684866985376 0 0 1 21.40063509461097,12.933012701892217 Z M 74.06496249366863,15.732360884992573 L 73.65958691338244,14.818210657235866 A 57.1684866985376 57.1684866985376 0 0 0 75.88857068698701,13.771767043094668 L 74.5554747607086,11.084230019844586 L 82.38167306228361,11.109132718986732 L 77.66603192202489,17.355149740761444 L 76.33293599574648,14.667612717511362 A 58.1684866985376 58.1684866985376 0 0 1 74.06496249366863,15.732360884992573"/><text text-anchor="middle" pointer-events="none" font-size="8px" fill="#000000" x="48.66478494306688" y="23.19738278781928" font-family="sans-serif">PRODUCED</text></g><g class="relationship" transform="translate(-60.823711175718856 95.44132169952825) rotate(432.0881641578514)"><path class="outline" fill="#A5ABB6" stroke="none" d="M 25 0.5 L 31.002188711350485 0.5 L 31.002188711350485 -0.5 L 25 -0.5 Z M 66.77562621135048 0.5 L 72.77781492270097 0.5 L 72.77781492270097 3.5 L 79.77781492270097 0 L 72.77781492270097 -3.5 L 72.77781492270097 -0.5 L 66.77562621135048 -0.5 Z"/><text text-anchor="middle" pointer-events="none" font-size="8px" fill="#000000" x="48.888907461350485" y="3" font-family="sans-serif">WROTE</text></g><g class="relationship" transform="translate(-60.823711175718856 95.44132169952825) rotate(432.0881641578514)"><path class="outline" fill="#A5ABB6" stroke="none" d="M 21.40063509461097,-12.933012701892217 L 21.90063509461097,-12.06698729810778 A 57.1684866985376 57.1684866985376 0 0 1 26.231854703939803,-14.326599925539334 L 25.807617066378544,-15.232150822439358 A 58.1684866985376 58.1684866985376 0 0 0 21.40063509461097,-12.933012701892217 Z M 71.7896783990989,-16.68412867513274 L 71.42341822689204,-15.753616189319146 A 57.1684866985376 57.1684866985376 0 0 1 75.88857068698701,-13.771767043094668 L 74.5554747607086,-11.084230019844586 L 82.38167306228361,-11.109132718986732 L 77.66603192202489,-17.355149740761444 L 76.33293599574648,-14.667612717511362 A 58.1684866985376 58.1684866985376 0 0 0 71.7896783990989,-16.68412867513274"/><text text-anchor="middle" pointer-events="none" font-size="8px" fill="#000000" x="48.66478494306686" y="-17.19738278781928" font-family="sans-serif">DIRECTED</text></g></g><g class="layer nodes"><g class="node" transform="translate(135.87770024726115,259.0308801109047)"><circle class="outline" cx="0" cy="0" r="25" fill="#F79767" stroke="#f36924" stroke-width="2px"/><text text-anchor="middle" pointer-events="none" font-family="sans-serif" dy="1.5625" font-size="25" fill="#FFFFFF"/><text text-anchor="middle" pointer-events="none" font-family="sans-serif" dy="1.5625" font-size="25" fill="#FFFFFF"/><text text-anchor="middle" pointer-events="none" x="0" y="0" font-size="10px" fill="#FFFFFF" font-family="sans-serif"> Cameron</text><text text-anchor="middle" pointer-events="none" x="0" y="10" font-size="10px" fill="#FFFFFF" font-family="sans-serif"> Crowe</text></g><g class="node" transform="translate(227.02169715908352,206.55535002299425)"><circle class="outline" cx="0" cy="0" r="25" fill="#57C7E3" stroke="#23b3d7" stroke-width="2px"/><text text-anchor="middle" pointer-events="none" font-family="sans-serif" dy="1.5625" font-size="25" fill="#2A2C34"/><text text-anchor="middle" pointer-events="none" font-family="sans-serif" dy="1.5625" font-size="25" fill="#2A2C34"/><text text-anchor="middle" pointer-events="none" x="0" y="0" font-size="10px" fill="#2A2C34" font-family="sans-serif"> Jerry</text><text text-anchor="middle" pointer-events="none" x="0" y="10" font-size="10px" fill="#2A2C34" font-family="sans-serif"> Maguire</text></g><g class="node" transform="translate(244.21110203782854,16.030528740670846)"><circle class="outline" cx="0" cy="0" r="25" fill="#F79767" stroke="#f36924" stroke-width="2px"/><text text-anchor="middle" pointer-events="none" font-family="sans-serif" dy="1.5625" font-size="25" fill="#FFFFFF"/><text text-anchor="middle" pointer-events="none" font-family="sans-serif" dy="1.5625" font-size="25" fill="#FFFFFF"/><text text-anchor="middle" pointer-events="none" x="0" y="0" font-size="10px" fill="#FFFFFF" font-family="sans-serif"> Lana</text><text text-anchor="middle" pointer-events="none" x="0" y="10" font-size="10px" fill="#FFFFFF" font-family="sans-serif"> Wacho…</text></g><g class="node" transform="translate(147.69662866138393,-22.540324872032887)"><circle class="outline" cx="0" cy="0" r="25" fill="#57C7E3" stroke="#23b3d7" stroke-width="2px"/><text text-anchor="middle" pointer-events="none" font-family="sans-serif" dy="1.5625" font-size="25" fill="#2A2C34"/><text text-anchor="middle" pointer-events="none" font-family="sans-serif" dy="1.5625" font-size="25" fill="#2A2C34"/><text text-anchor="middle" pointer-events="none" x="0" y="0" font-size="10px" fill="#2A2C34" font-family="sans-serif"> Speed</text><text text-anchor="middle" pointer-events="none" x="0" y="10" font-size="10px" fill="#2A2C34" font-family="sans-serif"> Racer</text></g><g class="node" transform="translate(46.937462493075515,-47.66966515539214)"><circle class="outline" cx="0" cy="0" r="25" fill="#F79767" stroke="#f36924" stroke-width="2px"/><text text-anchor="middle" pointer-events="none" font-family="sans-serif" dy="1.5625" font-size="25" fill="#FFFFFF"/><text text-anchor="middle" pointer-events="none" font-family="sans-serif" dy="1.5625" font-size="25" fill="#FFFFFF"/><text text-anchor="middle" pointer-events="none" x="0" y="0" font-size="10px" fill="#FFFFFF" font-family="sans-serif"> Andy</text><text text-anchor="middle" pointer-events="none" x="0" y="10" font-size="10px" fill="#FFFFFF" font-family="sans-serif"> Wacho…</text></g><g class="node" transform="translate(-60.823711175718856,95.44132169952825)"><circle class="outline" cx="0" cy="0" r="25" fill="#F79767" stroke="#f36924" stroke-width="2px"/><text text-anchor="middle" pointer-events="none" font-family="sans-serif" dy="1.5625" font-size="25" fill="#FFFFFF"/><text text-anchor="middle" pointer-events="none" font-family="sans-serif" dy="1.5625" font-size="25" fill="#FFFFFF"/><text text-anchor="middle" pointer-events="none" x="0" y="0" font-size="10px" fill="#FFFFFF" font-family="sans-serif"> Nancy</text><text text-anchor="middle" pointer-events="none" x="0" y="10" font-size="10px" fill="#FFFFFF" font-family="sans-serif"> Meyers</text></g><g class="node" transform="translate(-28.598960342897648,195.14064934890794)"><circle class="outline" cx="0" cy="0" r="25" fill="#57C7E3" stroke="#23b3d7" stroke-width="2px"/><text text-anchor="middle" pointer-events="none" font-family="sans-serif" dy="1.5625" font-size="25" fill="#2A2C34"/><text text-anchor="middle" pointer-events="none" x="0" y="5" font-size="10px" fill="#2A2C34" font-family="sans-serif"> Somethi…</text></g></g></svg>