<svg xmlns="http://www.w3.org/2000/svg" width="218.3536376953125" height="189.86474609375" viewBox="8.929080963134766 -4.260400772094727 218.3536376953125 189.86474609375"><title>Neo4j Graph Visualization</title><desc>Created using Neo4j (http://www.neo4j.com/)</desc><g class="layer relationships"><g class="relationship" transform="translate(157.0514064281629 156.60434676934702) rotate(291.79525177303606)"><path class="outline" fill="#A5ABB6" stroke="none" d="M 25 0.5 L 29.243007368651178 0.5 L 29.243007368651178 -0.5 L 25 -0.5 Z M 74.80550736865118 0.5 L 79.04851473730236 0.5 L 79.04851473730236 3.5 L 86.04851473730236 0 L 79.04851473730236 -3.5 L 79.04851473730236 -0.5 L 74.80550736865118 -0.5 Z"/><text text-anchor="middle" pointer-events="none" font-size="8px" fill="#000000" x="52.02425736865118" y="3" font-family="sans-serif">ACTED_IN</text></g><g class="relationship" transform="translate(157.0514064281629 156.60434676934702) rotate(205.90143689206866)"><path class="outline" fill="#A5ABB6" stroke="none" d="M 25 0.5 L 39.931158798516535 0.5 L 39.931158798516535 -0.5 L 25 -0.5 Z M 85.49365879851653 0.5 L 100.42481759703307 0.5 L 100.42481759703307 3.5 L 107.42481759703307 0 L 100.42481759703307 -3.5 L 100.42481759703307 -0.5 L 85.49365879851653 -0.5 Z"/><text text-anchor="middle" pointer-events="none" font-size="8px" fill="#000000" x="62.712408798516535" y="3" transform="rotate(180 62.712408798516535 0)" font-family="sans-serif">ACTED_IN</text></g><g class="relationship" transform="translate(157.0514064281629 156.60434676934702) rotate(182.2806172396896)"><path class="outline" fill="#A5ABB6" stroke="none" d="M 25 0.5 L 25.548467845762268 0.5 L 25.548467845762268 -0.5 L 25 -0.5 Z M 60.88440534576227 0.5 L 61.432873191524536 0.5 L 61.432873191524536 3.5 L 68.43287319152454 0 L 61.432873191524536 -3.5 L 61.432873191524536 -0.5 L 60.88440534576227 -0.5 Z"/><text text-anchor="middle" pointer-events="none" font-size="8px" fill="#000000" x="43.21643659576227" y="3" transform="rotate(180 43.21643659576227 0)" font-family="sans-serif">ACTE…</text></g><g class="relationship" transform="translate(93.61175416370995 24.73959940324128) rotate(375.36090449025926)"><path class="outline" fill="#A5ABB6" stroke="none" d="M 25 0.5 L 27.993103322635186 0.5 L 27.993103322635186 -0.5 L 25 -0.5 Z M 73.55560332263519 0.5 L 76.54870664527037 0.5 L 76.54870664527037 3.5 L 83.54870664527037 0 L 76.54870664527037 -3.5 L 76.54870664527037 -0.5 L 73.55560332263519 -0.5 Z"/><text text-anchor="middle" pointer-events="none" font-size="8px" fill="#000000" x="50.774353322635186" y="3" font-family="sans-serif">ACTED_IN</text></g><g class="relationship" transform="translate(93.61175416370995 24.73959940324128) rotate(486.95348036216615)"><path class="outline" fill="#A5ABB6" stroke="none" d="M 25 0.5 L 25.144227203946492 0.5 L 25.144227203946492 -0.5 L 25 -0.5 Z M 60.48016470394649 0.5 L 60.624391907892985 0.5 L 60.624391907892985 3.5 L 67.62439190789298 0 L 60.624391907892985 -3.5 L 60.624391907892985 -0.5 L 60.48016470394649 -0.5 Z"/><text text-anchor="middle" pointer-events="none" font-size="8px" fill="#000000" x="42.81219595394649" y="3" transform="rotate(180 42.81219595394649 0)" font-family="sans-serif">ACTE…</text></g><g class="relationship" transform="translate(93.61175416370995 24.73959940324128) rotate(463.1417889913056)"><path class="outline" fill="#A5ABB6" stroke="none" d="M 25 0.5 L 39.51528558314145 0.5 L 39.51528558314145 -0.5 L 25 -0.5 Z M 85.07778558314145 0.5 L 99.5930711662829 0.5 L 99.5930711662829 3.5 L 106.5930711662829 0 L 99.5930711662829 -3.5 L 99.5930711662829 -0.5 L 85.07778558314145 -0.5 Z"/><text text-anchor="middle" pointer-events="none" font-size="8px" fill="#000000" x="62.29653558314145" y="3" transform="rotate(180 62.29653558314145 0)" font-family="sans-serif">ACTED_IN</text></g></g><g class="layer nodes"><g class="node" transform="translate(157.0514064281629,156.60434676934702)"><circle class="outline" cx="0" cy="0" r="25" fill="#F79767" stroke="#f36924" stroke-width="2px"/><text text-anchor="middle" pointer-events="none" font-family="sans-serif" dy="1.5625" font-size="25" fill="#FFFFFF"/><text text-anchor="middle" pointer-events="none" font-family="sans-serif" dy="1.5625" font-size="25" fill="#FFFFFF"/><text text-anchor="middle" pointer-events="none" x="0" y="0" font-size="10px" fill="#FFFFFF" font-family="sans-serif"> Hugo</text><text text-anchor="middle" pointer-events="none" x="0" y="10" font-size="10px" fill="#FFFFFF" font-family="sans-serif"> Weaving</text></g><g class="node" transform="translate(93.61175416370995,24.73959940324128)"><circle class="outline" cx="0" cy="0" r="25" fill="#F79767" stroke="#f36924" stroke-width="2px"/><text text-anchor="middle" pointer-events="none" font-family="sans-serif" dy="1.5625" font-size="25" fill="#FFFFFF"/><text text-anchor="middle" pointer-events="none" font-family="sans-serif" dy="1.5625" font-size="25" fill="#FFFFFF"/><text text-anchor="middle" pointer-events="none" x="0" y="0" font-size="10px" fill="#FFFFFF" font-family="sans-serif"> Keanu</text><text text-anchor="middle" pointer-events="none" x="0" y="10" font-size="10px" fill="#FFFFFF" font-family="sans-serif"> Reeves</text></g><g class="node" transform="translate(198.282708144615,53.49395745707764)"><circle class="outline" cx="0" cy="0" r="25" fill="#57C7E3" stroke="#23b3d7" stroke-width="2px"/><text text-anchor="middle" pointer-events="none" font-family="sans-serif" dy="1.5625" font-size="25" fill="#2A2C34"/><text text-anchor="middle" pointer-events="none" font-family="sans-serif" dy="1.5625" font-size="25" fill="#2A2C34"/><text text-anchor="middle" pointer-events="none" font-family="sans-serif" dy="1.5625" font-size="25" fill="#2A2C34"/><text text-anchor="middle" pointer-events="none" x="0" y="-5" font-size="10px" fill="#2A2C34" font-family="sans-serif"> The</text><text text-anchor="middle" pointer-events="none" x="0" y="5" font-size="10px" fill="#2A2C34" font-family="sans-serif"> Matrix</text><text text-anchor="middle" pointer-events="none" x="0" y="15" font-size="10px" fill="#2A2C34" font-family="sans-serif"> Revol…</text></g><g class="node" transform="translate(37.929082294987346,98.75796219158671)"><circle class="outline" cx="0" cy="0" r="25" fill="#57C7E3" stroke="#23b3d7" stroke-width="2px"/><text text-anchor="middle" pointer-events="none" font-family="sans-serif" dy="1.5625" font-size="25" fill="#2A2C34"/><text text-anchor="middle" pointer-events="none" font-family="sans-serif" dy="1.5625" font-size="25" fill="#2A2C34"/><text text-anchor="middle" pointer-events="none" font-family="sans-serif" dy="1.5625" font-size="25" fill="#2A2C34"/><text text-anchor="middle" pointer-events="none" x="0" y="-5" font-size="10px" fill="#2A2C34" font-family="sans-serif"> The</text><text text-anchor="middle" pointer-events="none" x="0" y="5" font-size="10px" fill="#2A2C34" font-family="sans-serif"> Matrix</text><text text-anchor="middle" pointer-events="none" x="0" y="15" font-size="10px" fill="#2A2C34" font-family="sans-serif"> Reloa…</text></g><g class="node" transform="translate(63.69254008471737,152.88630052297282)"><circle class="outline" cx="0" cy="0" r="25" fill="#57C7E3" stroke="#23b3d7" stroke-width="2px"/><text text-anchor="middle" pointer-events="none" font-family="sans-serif" dy="1.5625" font-size="25" fill="#2A2C34"/><text text-anchor="middle" pointer-events="none" font-family="sans-serif" dy="1.5625" font-size="25" fill="#2A2C34"/><text text-anchor="middle" pointer-events="none" x="0" y="0" font-size="10px" fill="#2A2C34" font-family="sans-serif"> The</text><text text-anchor="middle" pointer-events="none" x="0" y="10" font-size="10px" fill="#2A2C34" font-family="sans-serif"> Matrix</text></g></g></svg>